<mxfile host="Electron" agent="Mozilla/5.0 (Windows NT 10.0; Win64; x64) AppleWebKit/537.36 (KHTML, like Gecko) draw.io/26.0.9 Chrome/128.0.6613.186 Electron/32.2.5 Safari/537.36" version="26.0.9">
  <diagram name="Page-1" id="GWlrEh4Q-D5uisb2oF94">
    <mxGraphModel dx="1434" dy="956" grid="1" gridSize="10" guides="1" tooltips="1" connect="1" arrows="1" fold="1" page="1" pageScale="1" pageWidth="850" pageHeight="1100" math="0" shadow="0">
      <root>
        <mxCell id="0" />
        <mxCell id="1" parent="0" />
        <mxCell id="1inrfcea6pLV34trJc_D-1" value="" style="rounded=0;html=1;jettySize=auto;orthogonalLoop=1;fontSize=11;endArrow=block;endFill=0;endSize=8;strokeWidth=1;shadow=0;labelBackgroundColor=none;edgeStyle=orthogonalEdgeStyle;" edge="1" parent="1" source="1inrfcea6pLV34trJc_D-2" target="1inrfcea6pLV34trJc_D-8">
          <mxGeometry relative="1" as="geometry">
            <mxPoint x="220" y="170" as="targetPoint" />
          </mxGeometry>
        </mxCell>
        <mxCell id="1inrfcea6pLV34trJc_D-2" value="User Requests Data" style="rounded=1;whiteSpace=wrap;html=1;fontSize=12;glass=0;strokeWidth=1;shadow=0;" vertex="1" parent="1">
          <mxGeometry x="160" y="80" width="120" height="40" as="geometry" />
        </mxCell>
        <mxCell id="1inrfcea6pLV34trJc_D-7" style="edgeStyle=orthogonalEdgeStyle;rounded=0;orthogonalLoop=1;jettySize=auto;html=1;exitX=0.5;exitY=1;exitDx=0;exitDy=0;" edge="1" parent="1" source="1inrfcea6pLV34trJc_D-8" target="1inrfcea6pLV34trJc_D-31">
          <mxGeometry relative="1" as="geometry">
            <mxPoint x="220" y="249" as="targetPoint" />
          </mxGeometry>
        </mxCell>
        <mxCell id="1inrfcea6pLV34trJc_D-8" value="Make request to API&amp;nbsp;" style="rounded=1;whiteSpace=wrap;html=1;fontSize=12;glass=0;strokeWidth=1;shadow=0;" vertex="1" parent="1">
          <mxGeometry x="160" y="169" width="120" height="50" as="geometry" />
        </mxCell>
        <mxCell id="1inrfcea6pLV34trJc_D-9" style="edgeStyle=orthogonalEdgeStyle;rounded=0;orthogonalLoop=1;jettySize=auto;html=1;exitX=0.5;exitY=1;exitDx=0;exitDy=0;" edge="1" parent="1" source="1inrfcea6pLV34trJc_D-10" target="1inrfcea6pLV34trJc_D-13">
          <mxGeometry relative="1" as="geometry" />
        </mxCell>
        <mxCell id="1inrfcea6pLV34trJc_D-10" value="Controller calls any necessary external APIs&amp;nbsp;" style="rounded=1;whiteSpace=wrap;html=1;fontSize=12;glass=0;strokeWidth=1;shadow=0;" vertex="1" parent="1">
          <mxGeometry x="145" y="389" width="150" height="60" as="geometry" />
        </mxCell>
        <mxCell id="1inrfcea6pLV34trJc_D-11" style="edgeStyle=orthogonalEdgeStyle;rounded=0;orthogonalLoop=1;jettySize=auto;html=1;exitX=0.5;exitY=1;exitDx=0;exitDy=0;" edge="1" parent="1" source="1inrfcea6pLV34trJc_D-13" target="1inrfcea6pLV34trJc_D-17">
          <mxGeometry relative="1" as="geometry" />
        </mxCell>
        <mxCell id="1inrfcea6pLV34trJc_D-12" value="Yes" style="edgeLabel;html=1;align=center;verticalAlign=middle;resizable=0;points=[];" vertex="1" connectable="0" parent="1inrfcea6pLV34trJc_D-11">
          <mxGeometry x="-0.2061" y="1" relative="1" as="geometry">
            <mxPoint as="offset" />
          </mxGeometry>
        </mxCell>
        <mxCell id="1inrfcea6pLV34trJc_D-13" value="Did it succeeed" style="rhombus;whiteSpace=wrap;html=1;shadow=0;fontFamily=Helvetica;fontSize=12;align=center;strokeWidth=1;spacing=6;spacingTop=-4;" vertex="1" parent="1">
          <mxGeometry x="165" y="494" width="110" height="90" as="geometry" />
        </mxCell>
        <mxCell id="1inrfcea6pLV34trJc_D-14" value="Throw exception" style="rounded=1;whiteSpace=wrap;html=1;fontSize=12;glass=0;strokeWidth=1;shadow=0;" vertex="1" parent="1">
          <mxGeometry x="380" y="519" width="130" height="50" as="geometry" />
        </mxCell>
        <mxCell id="1inrfcea6pLV34trJc_D-15" value="No" style="edgeStyle=orthogonalEdgeStyle;rounded=0;html=1;jettySize=auto;orthogonalLoop=1;fontSize=11;endArrow=block;endFill=0;endSize=8;strokeWidth=1;shadow=0;labelBackgroundColor=none;exitX=1;exitY=0.5;exitDx=0;exitDy=0;" edge="1" parent="1" source="1inrfcea6pLV34trJc_D-13" target="1inrfcea6pLV34trJc_D-14">
          <mxGeometry y="10" relative="1" as="geometry">
            <mxPoint as="offset" />
            <mxPoint x="310" y="539" as="sourcePoint" />
            <mxPoint x="360" y="539" as="targetPoint" />
            <Array as="points">
              <mxPoint x="275" y="539" />
            </Array>
          </mxGeometry>
        </mxCell>
        <mxCell id="1inrfcea6pLV34trJc_D-17" value="Fetch and organize data and return" style="rounded=1;whiteSpace=wrap;html=1;fontSize=12;glass=0;strokeWidth=1;shadow=0;" vertex="1" parent="1">
          <mxGeometry x="147" y="649" width="145" height="60" as="geometry" />
        </mxCell>
        <mxCell id="1inrfcea6pLV34trJc_D-27" style="edgeStyle=orthogonalEdgeStyle;rounded=0;orthogonalLoop=1;jettySize=auto;html=1;" edge="1" parent="1" source="1inrfcea6pLV34trJc_D-31" target="1inrfcea6pLV34trJc_D-32">
          <mxGeometry relative="1" as="geometry" />
        </mxCell>
        <mxCell id="1inrfcea6pLV34trJc_D-28" value="No" style="edgeLabel;html=1;align=center;verticalAlign=middle;resizable=0;points=[];" vertex="1" connectable="0" parent="1inrfcea6pLV34trJc_D-27">
          <mxGeometry x="-0.0993" y="-1" relative="1" as="geometry">
            <mxPoint as="offset" />
          </mxGeometry>
        </mxCell>
        <mxCell id="1inrfcea6pLV34trJc_D-29" style="edgeStyle=orthogonalEdgeStyle;rounded=0;orthogonalLoop=1;jettySize=auto;html=1;" edge="1" parent="1" source="1inrfcea6pLV34trJc_D-31" target="1inrfcea6pLV34trJc_D-10">
          <mxGeometry relative="1" as="geometry" />
        </mxCell>
        <mxCell id="1inrfcea6pLV34trJc_D-30" value="Yes" style="edgeLabel;html=1;align=center;verticalAlign=middle;resizable=0;points=[];" vertex="1" connectable="0" parent="1inrfcea6pLV34trJc_D-29">
          <mxGeometry x="-0.3042" y="-3" relative="1" as="geometry">
            <mxPoint as="offset" />
          </mxGeometry>
        </mxCell>
        <mxCell id="1inrfcea6pLV34trJc_D-31" value="Is the&amp;nbsp;&lt;div&gt;user authorized to view data&lt;/div&gt;" style="rhombus;whiteSpace=wrap;html=1;shadow=0;fontFamily=Helvetica;fontSize=12;align=center;strokeWidth=1;spacing=6;spacingTop=-4;" vertex="1" parent="1">
          <mxGeometry x="162.57" y="249" width="113.87" height="100" as="geometry" />
        </mxCell>
        <mxCell id="1inrfcea6pLV34trJc_D-32" value="Notify User" style="rounded=1;whiteSpace=wrap;html=1;fontSize=12;glass=0;strokeWidth=1;shadow=0;" vertex="1" parent="1">
          <mxGeometry x="330.00000000000006" y="276.5" width="113" height="45" as="geometry" />
        </mxCell>
      </root>
    </mxGraphModel>
  </diagram>
</mxfile>
